<svg width="18" height="17" viewBox="0 0 18 17" fill="none" xmlns="http://www.w3.org/2000/svg">
<path d="M16.3125 16.875H1.6875C0.75375 16.875 0 16.1213 0 15.1875V1.6875C0 0.75375 0.75375 0 1.6875 0H16.3125C17.2463 0 18 0.75375 18 1.6875V15.1875C18 16.1213 17.2463 16.875 16.3125 16.875ZM1.6875 1.125C1.3725 1.125 1.125 1.3725 1.125 1.6875V15.1875C1.125 15.5025 1.3725 15.75 1.6875 15.75H16.3125C16.6275 15.75 16.875 15.5025 16.875 15.1875V1.6875C16.875 1.3725 16.6275 1.125 16.3125 1.125H1.6875Z" fill="#FDFDFD"/>
</svg>
