<svg width="18" height="7" viewBox="0 0 18 7" fill="none" xmlns="http://www.w3.org/2000/svg">
<path d="M5.0625 4.5C4.7475 4.5 4.5 4.2525 4.5 3.9375V0.5625C4.5 0.2475 4.7475 0 5.0625 0C5.3775 0 5.625 0.2475 5.625 0.5625V3.9375C5.625 4.2525 5.3775 4.5 5.0625 4.5ZM12.9375 4.5C12.6225 4.5 12.375 4.2525 12.375 3.9375V0.5625C12.375 0.2475 12.6225 0 12.9375 0C13.2525 0 13.5 0.2475 13.5 0.5625V3.9375C13.5 4.2525 13.2525 4.5 12.9375 4.5ZM17.4375 6.75H0.5625C0.2475 6.75 0 6.5025 0 6.1875C0 5.8725 0.2475 5.625 0.5625 5.625H17.4375C17.7525 5.625 18 5.8725 18 6.1875C18 6.5025 17.7525 6.75 17.4375 6.75Z" fill="#FDFDFD"/>
</svg>
